<svg width="122.88" height="79.699" version="1.1" viewBox="0 0 32.512 21.087" xmlns="http://www.w3.org/2000/svg">
 <g  transform="translate(-65.101 -68.299)">
  <path className="closeViewPath" id="closeViewPath" d="m65.354 78.175c0.77311-0.93345 1.5825-1.783 2.4212-2.5466 3.7928-3.452 8.2963-5.2962 12.939-5.3888 1.7359-0.03466 3.4885 0.17595 5.2274 0.63923l-1.5621 1.5621c-1.2121-0.24236-2.4257-0.35031-3.6285-0.32623-4.1833 0.08361-8.259 1.7613-11.711 4.9035-0.61489 0.55959-1.207 1.1615-1.7732 1.8045 1.0771 1.2491 2.2754 2.3286 3.5592 3.2351 0.79058 0.55854 1.6132 1.0512 2.4596 1.478l-1.3922 1.3922c-0.73607-0.39793-1.4536-0.84243-2.1484-1.3332-1.6253-1.1478-3.1255-2.5477-4.4397-4.1936-0.29342-0.36962-0.26432-0.89165 0.04868-1.2261zm25.155-9.8758 1.5592 1.5592-19.527 19.528-1.5595-1.5597zm0.44715 4.659c1.1703 0.6686 2.3196 1.4626 3.438 2.385 1.0258 0.84561 2.0201 1.792 2.9739 2.8403 0.30771 0.33787 0.32279 0.83899 0.0598 1.1925-1.093 1.5436-2.3484 2.8617-3.7224 3.959-3.4375 2.744-7.6129 4.095-11.842 4.114-1.6177 0.0071-3.01-0.28576-4.6047-0.66544l1.3556-1.4827c1.0755 0.18653 2.1609 0.27755 3.2417 0.27278 3.8156-0.01693 7.5811-1.2351 10.68-3.7095 1.0578-0.84428 2.0389-1.8359 2.9178-2.9776-0.73739-0.76861-1.4888-1.4666-2.2511-2.095-1.1787-0.97181-2.3924-1.7883-3.6266-2.4535zm-9.5991 0.14129c0.70485 0 1.3801 0.12726 2.0045 0.35957l-1.5052 1.5052c-0.16378-0.0209-0.3302-0.03149-0.499-0.03149-1.0798 0-2.0571 0.43762-2.7646 1.1451-0.7075 0.7075-1.1451 1.6851-1.1451 2.7649 0 0.16907 0.01058 0.33549 0.03149 0.49874l-1.5052 1.5057c-0.23257-0.62415-0.35957-1.2996-0.35957-2.0045 0-1.5862 0.64294-3.0215 1.6822-4.0611 1.039-1.0395 2.4746-1.6822 4.0606-1.6822zm5.4697 3.9881c0.17727 0.55298 0.27305 1.143 0.27305 1.7552 0 1.5859-0.64294 3.0215-1.682 4.0608-1.0395 1.0393-2.4752 1.682-4.0608 1.682-0.61198 0-1.2017-0.09551-1.755-0.27331l1.5647-1.5647c0.06297 0.0032 0.12647 0.0048 0.19024 0.0048 1.0798 0 2.0571-0.43709 2.7646-1.1446 0.7075-0.7075 1.1451-1.6851 1.1451-2.7646 0-0.06377-0.0016-0.127-0.0048-0.1905z" fill="#ffffff"/>
 </g>
</svg>
