<svg
         fill="#ffffff"
         className="iconSVG"
         width="100%"
         height="100%"
         viewBox="0 0 62.187164 55.978138"
         version="1.1"
         id="ContactIcon">
        <defs
           id="defs2" />
        <metadata
           id="metadata5">
        </metadata>
        <g
           id="layer1"
           transform="translate(-7.5470903,-5.0620725)">
          <g
             id="g925"
             transform="translate(-11.366197,-27.726403)">
            <path
               d="m 50.270833,33.072917 27.781249,14.552082 c 0,0 3.96875,3.439584 2.645834,3.96875 -1.322917,0.529167 -30.691667,16.66875 -30.691667,16.66875 l -30.956249,-16.66875 c 0,0 -0.264584,-2.116666 2.910416,-3.96875 3.175,-1.852083 26.9875,-14.552083 26.9875,-14.552083 0,0 0.518378,-0.152149 0.782961,-0.152149 0.264584,0 0.539956,0.15215 0.539956,0.15215 z"
               id="path849" />
            <path
               id="path851"
               d="m 41.010417,-67.46875 -10.959069,6.327222 -10.959069,6.327221 0,-12.654443 0,-12.654443 10.959069,6.327222 z"
               transform="scale(1,-1)" />
            <path
               id="path851-5"
               transform="scale(-1,1)"
               d="m -58.737502,67.46875 -10.959069,6.327222 -10.959069,6.327221 0,-12.654443 0,-12.654443 10.959069,6.327222 z" />
            <g
               id="g897"
               transform="translate(6.0854163,-60.324997)">
              <path
                 d="m 44.185417,131.7625 -0.0021,17.19682 h -25.664583 c 0,0 -4.932182,-4.90102 -4.667599,-5.1656 0.264584,-0.26459 24.775932,-15.20731 24.775932,-15.20731 h 0.264584 z"
                 id="path873-0-7" />
              <path
                 d="m 44.185417,131.7625 0.0021,17.19682 h 25.664583 c 0,0 4.932182,-4.90102 4.667599,-5.1656 -0.264584,-0.26459 -24.775932,-15.20731 -24.775932,-15.20731 h -0.264584 z"
                 id="path873-0" />
            </g>
          </g>
        </g>
      </svg>