<svg width="2400" height="440.98" version="1.1" viewBox="0 0 635 116.68" xmlns="http://www.w3.org/2000/svg" xmlns:xlink="http://www.w3.org/1999/xlink">
 <g transform="translate(0 -169.07)">
  <g fill="#090909">
   <path d="m508 285.75v-5.2917h-339.99c-2.4935-1.1257-5.2224-1.8747-7.9375-2.6458-0.11683 0.41782-0.37766 0.72226-1.1344 1.1858-0.65581-0.89893-2.2583-2.5082-3.28-3.16-10.81-6.4013-15.244-7.8971-22.044-9.932-0.39051 2.2454 4.0073 5.0062 5.2917 9.2604-2.258-0.17662-3.3851-0.0805-3.9688 0-2.5801 0.0329-3.6397 0.82598-5.2917 1.3229h-1.3229c-7.0313-3.6235-13.037-8.1871-18.521-13.229v2.6458l-1.7592-3.4355c-1.4644-1.4754-2.4964-1.8415-5.6935-4.2112-1.0842-0.041-1.9681 0.10948-1.8077 1.032 1.3751 4.671 4.3601 6.299 6.6146 9.2604 0.53535 0.5318 0.11111 0.9008 0 1.3229h-2.6458l-15.875 3.9688c-5.2646 0.48839-10.152 1.6367-15.875 1.3229-6.38-1.7111-6.1961-2.4182-9.2604-4.2251-4.9381-3.1269-4.431-4.6303-6.6146-6.3582-3.2959-0.87868-3.6034-0.90356-5.2917-1.3229-0.62299-0.27303-0.94595-0.096-1.3229 0l3.9688 5.2917c-2.2052-2.2039-4.7127-3.5796-6.6631-6.4207l-3.9203-1.5168c3.2772-0.21767 6.5337-0.55322 9.0665-0.4848-1.2417-1.5857-2.3039-2.9919-3.7748-4.8069-3.791-4.1859-6.97-7.7871-10.244-10.68-1.6093-2.3994-3.7655-5.0166-5.631-7.8405-0.50583-2.1036 0.26686-2.2836 0.44565-8.6434l-0.06856-2.797c-0.767-0.76949-1.2684-2.0553-1.6798-3.0915-1.9456-3.1666-4.5147-7.7175-6.8062-11.961-0.25814-0.41212-0.51628-0.48211-0.77442-0.6373-0.21711 0.22319-0.43422 0.61143-0.65134 1.0144-0.57387-2.0438-1.2024-3.6675-2.3716-5.6345-1.4867-2.0481-2.802-3.3374-3.9688-3.9688l-5.2917-1.3229-5.2917-7.9375-1.3229-2.6458v-2.6458l-1.3229 1.3229v-3.9688l-2.8358-10.583-1.133-4.2282v116.68z"/>
   <path d="m24.474 206.03 0.23997-0.56564s0.34281-0.34281 0.41137-0.35995c0.06856-0.0171 0.75418 0.0857 0.75418 0.0857l0.39423 0.35994 0.22282 0.61706-0.11998 0.42851-0.44565 0.23997-0.18854 0.1714 0.15426 0.32567s0.15426-0.0171 0.27425 0 0.34281 0.0343 0.54849 0.0686 0.41137 0.0686 0.56563 0.0686h0.53136s0.22282 0.11999 0.29139 0.15427c0.06856 0.0343 0.1714 0.0343 0.29139 0.15426 0.11998 0.11998 0.29139 0.30853 0.29139 0.30853s0.11998 0.10284 0.15426 0.1714c0.03428 0.0686 0.11998 0.22283 0.11998 0.22283s0.06856 0.0172 0.13712 0.15426c0.06856 0.13713 0.11998 0.15427 0.1714 0.29139 0.05142 0.13712 0.10284 0.15426 0.11998 0.23997 0.01714 0.0857 0.05142 0 0.0857 0.22282 0.03428 0.22283 0.06856 0.30853 0.0857 0.41137 0.01714 0.10285 0.01714 0.0857 0.01714 0.17141v0.27425c0 0.0857 0.03428 0.10284 0 0.27424-0.03428 0.17141 0.0857 0.11999-0.05142 0.22283-0.13712 0.10284-0.10284 0.13712-0.25711 0.13712-0.15426 0-0.06856 0.0343-0.23997-0.0171-0.1714-0.0514-0.10284-0.0171-0.27425-0.0857s-0.05142 0.0171-0.23997-0.10285c-0.18854-0.11998-0.35995-0.27424-0.41137-0.3428-0.05142-0.0686-0.01714 0-0.11998-0.13713-0.10284-0.13712-0.03428-0.0686-0.13712-0.20568-0.10284-0.13713-0.10284-0.15427-0.18854-0.27425-0.0857-0.11998-0.34281-0.41137-0.34281-0.41137l-0.46279-0.0343s-0.32567-0.0172-0.42851-0.0172h-0.30853l-0.27425-0.0343-0.27425-0.18854-0.0857-0.11999-0.25711-0.2571-0.23997-0.34281-0.18854-0.22283-0.29139-0.37709-0.06856-0.11998-0.05142-0.46279 0.01714-0.41137 0.03428-0.35995z" style="mix-blend-mode:normal"/>
   <path d="m26.192 210.44 0.33936 0.38785s0.15756 0.25452 0.15756 0.31512 0.03636 0.33936 0.03636 0.33936-0.09696 0.19393-0.1818 0.19393c-0.08484 0-0.44844-0.31513-0.44844-0.31513s-0.1212-0.15756-0.15756-0.21816-0.0606-0.15756-0.13332-0.26664c-0.07272-0.10909-0.16968-0.23029-0.1818-0.27877-0.01212-0.0485-0.02424-0.13332-0.02424-0.13332l0.1818-0.0485 0.1818-0.0606 0.16968 0.0242z"/>
   <path d="m13.232 195.3 0.54849 0.58277 0.8056 0.95987 0.25711 0.35995v0.44565s-0.15426 0.22282-0.25711 0.32566c-0.10284 0.10285-0.30853 0.25711-0.41137 0.29139-0.10284 0.0343-0.27425 0.11999-0.42851 0.11999s-0.11998 0.0171-0.42851-0.0686-0.46279-0.11999-0.59992-0.15427c-0.13712-0.0343-0.11998 0.0514-0.27425-0.11998-0.15426-0.17141-0.18854-0.0857-0.29139-0.37709-0.10284-0.29139-0.10284-0.20569-0.13712-0.49708-0.03428-0.29138-0.06856 0-0.03428-0.39422 0.03428-0.39423 0.01714-0.30853 0.0857-0.56564s0.03428-0.29139 0.13712-0.44565c0.10284-0.15427 0.03428-0.10284 0.11998-0.17141 0.0857-0.0686 0-0.0686 0.11998-0.13712 0.11998-0.0686 0-0.0343 0.1714-0.0857 0.1714-0.0514 0.06856-0.0686 0.29139-0.0686h0.32567z"/>
   <path d="m11.33 196.02s-0.1714-0.22283-0.30853-0.34281c-0.13712-0.11999-0.1714-0.20569-0.29139-0.23997-0.11998-0.0343-0.27425-0.0857-0.29139 0s-0.0857 0.23997 0.06856 0.32567c0.15426 0.0857 0.30853 0.1714 0.30853 0.1714l0.20569 0.13713 0.0857 0.0171z"/>
   <path d="m13.455 193.86s-0.32567 0.17141-0.32567 0.29139-0.03428 0.20568 0 0.32567c0.03428 0.11998-0.06856 0.13712 0.10284 0.1714 0.1714 0.0343 0.18854 0.15426 0.30853 0.0343 0.11998-0.11998 0.23997-0.18854 0.23997-0.32567v-0.29139c0-0.15426 0.01714-0.20568-0.05142-0.20568h-0.27425z"/>
   <path d="m34.033 223.66 0.3636-0.41209 0.04848-0.43632s0-0.19393-0.21816-0.29089c-0.21816-0.097-0.38784-0.26664-0.50904-0.21816-0.1212 0.0485-0.46057 0.36361-0.46057 0.36361s0 0.16968-0.02424 0.26664c-0.02423 0.097-0.02423 0.1212-0.02423 0.29088s0.1212 0.31513 0.1212 0.31513l0.19392 0.0485 0.21816 0.0727z"/>
   <path d="m35.148 234.43-0.65449-0.33936s-0.29088 0.14544-0.26664 0.33936c0.02424 0.19393 0.14544 0.24241 0.14544 0.46057s-0.02424 0.38784 0 0.67873c0.02424 0.29088 0.04848 0.63024 0.04848 0.7272 0 0.097 0.07272 0.0727 0.16968 0.2424 0.09696 0.16969 0.16968 0.24241 0.26664 0.26665 0.09696 0.0242 0.09696 0.14544 0.33936 0.0242 0.2424-0.12121 0.41209-0.097 0.46056-0.38785 0.04848-0.29088 0.14544-0.26664 0.16968-0.606 0.02424-0.33937 0.21816-0.19393 0-0.50905s-0.1212-0.19392-0.29088-0.38784c-0.16968-0.19393-0.07272-0.0485-0.19392-0.21817-0.1212-0.16968-0.19392-0.29088-0.19392-0.29088z"/>
   <path d="m40.942 241.19s0.09696 0.16968 0.16968 0.36361c0.07272 0.19392 0.09696 0.26664 0.16968 0.43632 0.07272 0.16968 0.02424 0.1212 0.1212 0.21816 0.09696 0.097 0.19392 0.21816 0.31512 0.24241 0.1212 0.0242 0.21816 0.1212 0.41208 0.097 0.19392-0.0242 0.14544-0.0242 0.46057-0.0727s0.31512 0.0242 0.58177-0.097 0.41208-0.16968 0.50904-0.19392c0.09696-0.0242 0.14544-0.0242 0.2424-0.0242 0.09696 0 0.14544-0.097 0.19392 0.0242 0.04848 0.1212 0.1212 0.0485 0.09696 0.21817-0.02424 0.16968 0 0.31512-0.04848 0.43632s0.19392-0.0242-0.1212 0.16968c-0.31512 0.19392-0.07272 0.097-0.43632 0.26664-0.3636 0.16968-0.14544 0.097-0.50904 0.29089-0.3636 0.19392-0.2424 0.0727-0.4848 0.29088-0.2424 0.21816-0.29088 0.26664-0.29088 0.26664s0.1212 0.097-0.09696 0.16968c-0.21816 0.0727 0.07272 0.0727-0.31512 0.097-0.38784 0.0242-0.21816 0.0727-0.55752 0-0.33936-0.0727-0.26664 0.0485-0.53329-0.1212-0.26664-0.16968-0.16968-0.1212-0.41208-0.31512-0.2424-0.19392-0.21816-0.1212-0.46057-0.38784-0.2424-0.26665-0.02423 0.0727-0.33936-0.36361-0.31512-0.43632-0.46057-0.53328-0.46057-0.53328s-0.1212-0.0485-0.26664-0.1212c-0.14544-0.0727-0.14544-0.0727-0.31512-0.16969-0.16968-0.097-0.16968-0.0485-0.26664-0.16968-0.09696-0.1212-0.1212-0.0485-0.14544-0.2424-0.02424-0.19392-0.21816-0.1212-0.02424-0.29088s0.04848-0.0727 0.26664-0.21816c0.21816-0.14545-0.07272-0.097 0.3636-0.24241 0.43632-0.14544 0.21816-0.19392 0.60601-0.19392h0.65449c0.3636 0 0.33936-0.0242 0.46057 0 0.1212 0.0242 0.14544 0.097 0.2424 0.1212s0.21816 0.0485 0.21816 0.0485z"/>
   <path d="m42.76 240s-0.29088-0.16968-0.38784 0.21816c-0.09696 0.38785-0.21816 0.33937-0.09696 0.60601s0.07272 0.21816 0.2424 0.38784c0.16968 0.16969 0.65449 0.33937 0.77569 0.33937 0.1212 0 0.2424-0.0727 0.2424-0.0727s0.09696 0.0727 0.02424-0.2424c-0.07272-0.31512-0.04848-0.29088-0.14544-0.58176-0.09696-0.29088-0.04848-0.24241-0.1212-0.38785-0.07272-0.14544-0.07272-0.2424-0.19392-0.2424s-0.33936-0.0242-0.33936-0.0242z"/>
   <path d="m57.66 260.33 0.06856-1.0284-0.34281-0.23996s-0.34281-0.20569-0.61706-0.0343c-0.27425 0.1714-0.61706 0.0343-0.41137 0.54849 0.20569 0.51422 0.06856 0.5485 0.23997 0.61706 0.1714 0.0686 0.20568 0.20568 0.37709 0.20568s0.20569 0 0.34281-0.0343 0.34281-0.0343 0.34281-0.0343z"/>
   <path d="m57.626 261.8s0.27425-0.10284 1.0284 0c0.75418 0.10284 0.78846 0.0343 0.92558 0.10284 0.13712 0.0686 0.23997-0.0343 0.27425 0.17141 0.03428 0.20568 0.06856 0.44565 0.06856 0.61705 0 0.17141 0.13712 0.27425-0.03428 0.41137-0.1714 0.13713 0.37709 0.0686-0.27425 0.20569-0.65134 0.13712-0.23997 0.34281-0.8913 0.1714-0.65134-0.1714-0.47993 0-0.75418-0.23996-0.27425-0.23997-0.1714-0.17141-0.44565-0.44566-0.27425-0.27424-0.51421-0.44565-0.61706-0.65133-0.10284-0.20569-0.10284-0.27425-0.10284-0.27425z"/>
   <path d="m98.215 260.23 0.44565 0.85702 0.1714 0.23997s0.13712 0.20568 0.27425 0.51421c0.13712 0.30853 0.23997 0.30853 0.27425 0.58277 0.03428 0.27425 0.06856 0.20569 0.06856 0.51422v0.47993s0.37709-0.13712-0.03428 0.23997c-0.41137 0.37709-0.10284 0.27424-0.47993 0.51421-0.37709 0.23997-0.37709 0.27425-0.58278 0.41137-0.20568 0.13713-0.20568 0.13713-0.44565 0.30853-0.23997 0.1714-0.10284 0.0343-0.37709 0.27424-0.27425 0.23998-0.30853 0.27427-0.51421 0.41137-0.20568 0.13714-0.30853 0.27424-0.30853 0.27424s0.03428 0.0686-0.20568 0.13714c-0.23997 0.0686-0.03428 0.17139-0.34281 0.10284-0.30853-0.0686-0.41137 0-0.51421-0.34282-0.10284-0.34279-0.13712-0.20569-0.1714-0.61703-0.03428-0.41138-0.03428-0.17143-0.03428-0.61707 0-0.44565-0.20568-0.44565 0.03428-0.68562 0.23997-0.23997 0.23997-0.27424 0.44565-0.41137 0.20568-0.13712-0.03428-0.10284 0.34281-0.23996 0.37709-0.13713 0.23997-0.10285 0.68562-0.27425 0.44565-0.17141 0.51421-0.20569 0.51421-0.20569s0.06856-0.10284 0.1714-0.41137c0.10284-0.30853 0.20568 0.10284 0.23997-0.68562 0.03428-0.78846 0.03428-1.097 0.03428-1.097v-0.44565z"/>
   <path d="m97.022 260.69-0.16968 0.4242s-0.03636 0.097-0.10908 0.20605c-0.07272 0.10908-0.10908 0.33936-0.37572 0.33936s-0.23028 0-0.32724-0.0242c-0.09696-0.0242-0.16968-0.0848-0.26664-0.15756-0.09696-0.0727-0.10908-0.0242-0.16968-0.14544-0.0606-0.1212-0.0606-0.14544-0.09696-0.25452s-0.0606-0.097-0.0606-0.16968c0-0.0727 0.02424-0.23028 0.03636-0.27877 0.01212-0.0485 0.46057-0.097 0.52117-0.0848 0.0606 0.0121 0.2424 0.0242 0.37572 0.0364 0.13332 0.0121 0.2424 0.0121 0.32724 0.0121 0.08484 0 0.31512 0.097 0.31512 0.097z"/>
   <path d="m107.33 257.16-0.27424 0.42851-0.17141 0.29139s-0.0686 0.0171 0 0.15426c0.0686 0.13713 0.22283 0.27425 0.30853 0.30853 0.0857 0.0343 0.15426 0.0514 0.30853 0.10284 0.15426 0.0514 0.32567 0.0686 0.32567 0.0686s0.23996 0.0686 0.32566 0.0686 0.0857 0.0343 0.30853 0 0.29139 0.0343 0.35995-0.13713c0.0686-0.1714 0.10284-0.0686 0.10284-0.3428 0-0.27425 0.0343-0.22283 0-0.51422s-0.0171-0.30853-0.0686-0.49707c-0.0514-0.18855 0.0686 0.0171-0.10284-0.35995-0.1714-0.37709 0.0172-0.11998-0.23997-0.47993-0.2571-0.35995-0.23996-0.39423-0.42851-0.51422-0.18854-0.11998-0.0171-0.0343-0.32567-0.18854-0.30853-0.15427-0.0514-0.0857-0.42851-0.18855-0.37709-0.10284-0.75418-0.15426-0.75418-0.15426s-0.32567-0.0857-0.53135-0.0514c-0.20569 0.0343-0.46279 0.10284-0.46279 0.10284l-0.27425 0.18855-0.13712 0.0514s0 0.0343-0.17141 0c-0.1714-0.0343-0.10284 0.0514-0.30852-0.0857-0.20569-0.13712-0.30853-0.1714-0.39423-0.23996-0.0857-0.0686-0.11999-0.0514-0.18855-0.11999-0.0686-0.0686-0.0857-0.0857-0.20569-0.15426-0.11998-0.0686-0.42851-0.18854-0.42851-0.18854s0-0.0172-0.13712-0.0172-0.0857-0.0343-0.35995 0.0514-0.32567 0.0686-0.42851 0.13713c-0.10284 0.0686-0.23997 0.0171-0.23997 0.18854 0 0.1714-0.0686 0.13712 0 0.34281 0.0686 0.20568 0.0343 0.25711 0.15427 0.41137 0.11998 0.15426 0.18854 0.27425 0.2571 0.32567 0.0686 0.0514 0.0686 0.13712 0.20569 0.22283 0.13712 0.0857 0.27425 0.20568 0.39423 0.32566 0.11998 0.11999 0.0686 0.0857 0.23997 0.17141 0.1714 0.0857 0.18854 0.15426 0.46279 0.20568 0.27425 0.0514 0.34281 0.11999 0.78846 0.0857 0.44565-0.0343 0.34281 0.0172 0.61705-0.0514 0.27425-0.0686 0.25711-0.0343 0.58278-0.13712 0.32567-0.10284 0.20569-0.0857 0.46279-0.11998 0.25711-0.0343 0.46279-0.0343 0.46279-0.0343s0.0857 0.0343 0.17141 0.0514c0.0857 0.0171 0.13712 0.0857 0.13712 0.0857z"/>
   <path d="m103.67 252.96s0.32567 0.0686 0.47993 0.15427c0.15427 0.0857 0.20569 0.0857 0.34281 0.1714s0.47993 0.39423 0.47993 0.39423v0.13712s0.17141 0.11999-0.11998 0.11999-0.23997 0.0857-0.46279-0.0172c-0.22283-0.10284-0.20569 0-0.32567-0.13712-0.11998-0.13713-0.0514-0.0343-0.15427-0.20569-0.10284-0.1714-0.11998-0.20568-0.15426-0.27425-0.0343-0.0686-0.0857-0.3428-0.0857-0.3428z"/>
   <path d="m128.59 261.19c-0.63025-0.29089-0.33937-0.26665-1.212-0.46057-0.87264-0.19392-0.79992-0.21816-1.1635-0.26664-0.3636-0.0485-0.53328-0.0485-0.65448-0.0485s-0.19392-0.0242-0.48481 0.19392c-0.29088 0.21816-0.38784 0.3636-0.50904 0.41208-0.12121 0.0485-0.31513 0.097-0.43633 0.29089-0.1212 0.19392-0.16968 0.19392-0.19392 0.3636-0.0242 0.16968-0.0242 0.16968-0.0242 0.41208 0 0.24241-0.29088 0.46057 0.097 0.60601 0.38785 0.14544 0.19393 0.0727 0.72721 0.26664 0.53329 0.19392 0.43632 0.19392 0.79993 0.29088 0.3636 0.097 0.3636 0.097 0.82417 0.24241 0.46056 0.14544 0.21816 0.1212 0.7272 0.26664 0.50905 0.14544 0.55753 0.21816 0.94537 0.26664 0.38785 0.0485 0.31513 0.0485 0.65449 0.0727s0.29088 0.0727 0.50905 0.0242c0.21816-0.0485 0.38784-0.0242 0.50904-0.26664 0.1212-0.2424 0.55753 0.63024 0.14544-0.48481-0.41208-1.115-0.43632-1.115-0.53328-1.2605-0.097-0.14544-0.1212-0.19392-0.21817-0.33936-0.097-0.14544-0.19392-0.26665-0.31512-0.38785l-0.19392-0.19392z"/>
   <path d="m131.36 261.7s-0.29088-0.0485-0.33936 0.0485c-0.0485 0.097-0.26664 0.21816-0.1212 0.38784s0.33936 0.29089 0.50905 0.41209c0.16968 0.1212 0.26664 0.16968 0.4848 0.38784s0.2424 0.26664 0.4848 0.46057c0.24241 0.19392 0.31513 0.3636 0.55753 0.29088 0.2424-0.0727 0.41208-0.097 0.67873-0.29088 0.26664-0.19393 0.33936-0.0242 0.46056-0.43633 0.1212-0.41208 0.31513-0.43632 0.14544-0.67872-0.16968-0.24241 0-0.33937-0.50904-0.38785-0.50905-0.0485-0.55753 0-0.72721-0.0485s0.0485-0.0485-0.41208-0.0727c-0.46057-0.0242-0.36361 0.0242-0.58177-0.0242-0.21816-0.0485-0.63025-0.0485-0.63025-0.0485z"/>
   <g transform="matrix(-1 0 0 1 635 -7.25e-6)">
    <path d="m508 285.75v-5.2917h-339.99c-2.4935-1.1257-5.2224-1.8747-7.9375-2.6458-0.11683 0.41782-0.37766 0.72226-1.1344 1.1858-0.65581-0.89893-2.2583-2.5082-3.28-3.16-10.81-6.4013-15.244-7.8971-22.044-9.932-0.39051 2.2454 4.0073 5.0062 5.2917 9.2604-2.258-0.17662-3.3851-0.0805-3.9688 0-2.5801 0.0329-3.6397 0.82598-5.2917 1.3229h-1.3229c-7.0313-3.6235-13.037-8.1871-18.521-13.229v2.6458l-1.7592-3.4355c-1.4644-1.4754-2.4964-1.8415-5.6935-4.2112-1.0842-0.041-1.9681 0.10948-1.8077 1.032 1.3751 4.671 4.3601 6.299 6.6146 9.2604 0.53535 0.5318 0.11111 0.9008 0 1.3229h-2.6458l-15.875 3.9688c-5.2646 0.48839-10.152 1.6367-15.875 1.3229-6.38-1.7111-6.1961-2.4182-9.2604-4.2251-4.9381-3.1269-4.431-4.6303-6.6146-6.3582-3.2959-0.87868-3.6034-0.90356-5.2917-1.3229-0.62299-0.27303-0.94595-0.096-1.3229 0l3.9688 5.2917c-2.2052-2.2039-4.7127-3.5796-6.6631-6.4207l-3.9203-1.5168c3.2772-0.21767 6.5337-0.55322 9.0665-0.4848-1.2417-1.5857-2.3039-2.9919-3.7748-4.8069-3.791-4.1859-6.97-7.7871-10.244-10.68-1.6093-2.3994-3.7655-5.0166-5.631-7.8405-0.50583-2.1036 0.26686-2.2836 0.44565-8.6434l-0.06856-2.797c-0.767-0.76949-1.2684-2.0553-1.6798-3.0915-1.9456-3.1666-4.5147-7.7175-6.8062-11.961-0.25814-0.41212-0.51628-0.48211-0.77442-0.6373-0.21711 0.22319-0.43422 0.61143-0.65134 1.0144-0.57387-2.0438-1.2024-3.6675-2.3716-5.6345-1.4867-2.0481-2.802-3.3374-3.9688-3.9688l-5.2917-1.3229-5.2917-7.9375-1.3229-2.6458v-2.6458l-1.3229 1.3229v-3.9688l-2.8358-10.583-1.133-4.2282v116.68z"/>
    <path d="m24.474 206.03 0.23997-0.56564s0.34281-0.34281 0.41137-0.35995c0.06856-0.0171 0.75418 0.0857 0.75418 0.0857l0.39423 0.35994 0.22282 0.61706-0.11998 0.42851-0.44565 0.23997-0.18854 0.1714 0.15426 0.32567s0.15426-0.0171 0.27425 0 0.34281 0.0343 0.54849 0.0686 0.41137 0.0686 0.56563 0.0686h0.53136s0.22282 0.11999 0.29139 0.15427c0.06856 0.0343 0.1714 0.0343 0.29139 0.15426 0.11998 0.11998 0.29139 0.30853 0.29139 0.30853s0.11998 0.10284 0.15426 0.1714c0.03428 0.0686 0.11998 0.22283 0.11998 0.22283s0.06856 0.0172 0.13712 0.15426c0.06856 0.13713 0.11998 0.15427 0.1714 0.29139 0.05142 0.13712 0.10284 0.15426 0.11998 0.23997 0.01714 0.0857 0.05142 0 0.0857 0.22282 0.03428 0.22283 0.06856 0.30853 0.0857 0.41137 0.01714 0.10285 0.01714 0.0857 0.01714 0.17141v0.27425c0 0.0857 0.03428 0.10284 0 0.27424-0.03428 0.17141 0.0857 0.11999-0.05142 0.22283-0.13712 0.10284-0.10284 0.13712-0.25711 0.13712-0.15426 0-0.06856 0.0343-0.23997-0.0171-0.1714-0.0514-0.10284-0.0171-0.27425-0.0857s-0.05142 0.0171-0.23997-0.10285c-0.18854-0.11998-0.35995-0.27424-0.41137-0.3428-0.05142-0.0686-0.01714 0-0.11998-0.13713-0.10284-0.13712-0.03428-0.0686-0.13712-0.20568-0.10284-0.13713-0.10284-0.15427-0.18854-0.27425-0.0857-0.11998-0.34281-0.41137-0.34281-0.41137l-0.46279-0.0343s-0.32567-0.0172-0.42851-0.0172h-0.30853l-0.27425-0.0343-0.27425-0.18854-0.0857-0.11999-0.25711-0.2571-0.23997-0.34281-0.18854-0.22283-0.29139-0.37709-0.06856-0.11998-0.05142-0.46279 0.01714-0.41137 0.03428-0.35995z" style="mix-blend-mode:normal"/>
    <path d="m26.192 210.44 0.33936 0.38785s0.15756 0.25452 0.15756 0.31512 0.03636 0.33936 0.03636 0.33936-0.09696 0.19393-0.1818 0.19393c-0.08484 0-0.44844-0.31513-0.44844-0.31513s-0.1212-0.15756-0.15756-0.21816-0.0606-0.15756-0.13332-0.26664c-0.07272-0.10909-0.16968-0.23029-0.1818-0.27877-0.01212-0.0485-0.02424-0.13332-0.02424-0.13332l0.1818-0.0485 0.1818-0.0606 0.16968 0.0242z"/>
    <path d="m13.232 195.3 0.54849 0.58277 0.8056 0.95987 0.25711 0.35995v0.44565s-0.15426 0.22282-0.25711 0.32566c-0.10284 0.10285-0.30853 0.25711-0.41137 0.29139-0.10284 0.0343-0.27425 0.11999-0.42851 0.11999s-0.11998 0.0171-0.42851-0.0686-0.46279-0.11999-0.59992-0.15427c-0.13712-0.0343-0.11998 0.0514-0.27425-0.11998-0.15426-0.17141-0.18854-0.0857-0.29139-0.37709-0.10284-0.29139-0.10284-0.20569-0.13712-0.49708-0.03428-0.29138-0.06856 0-0.03428-0.39422 0.03428-0.39423 0.01714-0.30853 0.0857-0.56564s0.03428-0.29139 0.13712-0.44565c0.10284-0.15427 0.03428-0.10284 0.11998-0.17141 0.0857-0.0686 0-0.0686 0.11998-0.13712 0.11998-0.0686 0-0.0343 0.1714-0.0857 0.1714-0.0514 0.06856-0.0686 0.29139-0.0686h0.32567z"/>
    <path d="m11.33 196.02s-0.1714-0.22283-0.30853-0.34281c-0.13712-0.11999-0.1714-0.20569-0.29139-0.23997-0.11998-0.0343-0.27425-0.0857-0.29139 0s-0.0857 0.23997 0.06856 0.32567c0.15426 0.0857 0.30853 0.1714 0.30853 0.1714l0.20569 0.13713 0.0857 0.0171z"/>
    <path d="m13.455 193.86s-0.32567 0.17141-0.32567 0.29139-0.03428 0.20568 0 0.32567c0.03428 0.11998-0.06856 0.13712 0.10284 0.1714 0.1714 0.0343 0.18854 0.15426 0.30853 0.0343 0.11998-0.11998 0.23997-0.18854 0.23997-0.32567v-0.29139c0-0.15426 0.01714-0.20568-0.05142-0.20568h-0.27425z"/>
    <path d="m34.033 223.66 0.3636-0.41209 0.04848-0.43632s0-0.19393-0.21816-0.29089c-0.21816-0.097-0.38784-0.26664-0.50904-0.21816-0.1212 0.0485-0.46057 0.36361-0.46057 0.36361s0 0.16968-0.02424 0.26664c-0.02423 0.097-0.02423 0.1212-0.02423 0.29088s0.1212 0.31513 0.1212 0.31513l0.19392 0.0485 0.21816 0.0727z"/>
    <path d="m35.148 234.43-0.65449-0.33936s-0.29088 0.14544-0.26664 0.33936c0.02424 0.19393 0.14544 0.24241 0.14544 0.46057s-0.02424 0.38784 0 0.67873c0.02424 0.29088 0.04848 0.63024 0.04848 0.7272 0 0.097 0.07272 0.0727 0.16968 0.2424 0.09696 0.16969 0.16968 0.24241 0.26664 0.26665 0.09696 0.0242 0.09696 0.14544 0.33936 0.0242 0.2424-0.12121 0.41209-0.097 0.46056-0.38785 0.04848-0.29088 0.14544-0.26664 0.16968-0.606 0.02424-0.33937 0.21816-0.19393 0-0.50905s-0.1212-0.19392-0.29088-0.38784c-0.16968-0.19393-0.07272-0.0485-0.19392-0.21817-0.1212-0.16968-0.19392-0.29088-0.19392-0.29088z"/>
    <path d="m40.942 241.19s0.09696 0.16968 0.16968 0.36361c0.07272 0.19392 0.09696 0.26664 0.16968 0.43632 0.07272 0.16968 0.02424 0.1212 0.1212 0.21816 0.09696 0.097 0.19392 0.21816 0.31512 0.24241 0.1212 0.0242 0.21816 0.1212 0.41208 0.097 0.19392-0.0242 0.14544-0.0242 0.46057-0.0727s0.31512 0.0242 0.58177-0.097 0.41208-0.16968 0.50904-0.19392c0.09696-0.0242 0.14544-0.0242 0.2424-0.0242 0.09696 0 0.14544-0.097 0.19392 0.0242 0.04848 0.1212 0.1212 0.0485 0.09696 0.21817-0.02424 0.16968 0 0.31512-0.04848 0.43632s0.19392-0.0242-0.1212 0.16968c-0.31512 0.19392-0.07272 0.097-0.43632 0.26664-0.3636 0.16968-0.14544 0.097-0.50904 0.29089-0.3636 0.19392-0.2424 0.0727-0.4848 0.29088-0.2424 0.21816-0.29088 0.26664-0.29088 0.26664s0.1212 0.097-0.09696 0.16968c-0.21816 0.0727 0.07272 0.0727-0.31512 0.097-0.38784 0.0242-0.21816 0.0727-0.55752 0-0.33936-0.0727-0.26664 0.0485-0.53329-0.1212-0.26664-0.16968-0.16968-0.1212-0.41208-0.31512-0.2424-0.19392-0.21816-0.1212-0.46057-0.38784-0.2424-0.26665-0.02423 0.0727-0.33936-0.36361-0.31512-0.43632-0.46057-0.53328-0.46057-0.53328s-0.1212-0.0485-0.26664-0.1212c-0.14544-0.0727-0.14544-0.0727-0.31512-0.16969-0.16968-0.097-0.16968-0.0485-0.26664-0.16968-0.09696-0.1212-0.1212-0.0485-0.14544-0.2424-0.02424-0.19392-0.21816-0.1212-0.02424-0.29088s0.04848-0.0727 0.26664-0.21816c0.21816-0.14545-0.07272-0.097 0.3636-0.24241 0.43632-0.14544 0.21816-0.19392 0.60601-0.19392h0.65449c0.3636 0 0.33936-0.0242 0.46057 0 0.1212 0.0242 0.14544 0.097 0.2424 0.1212s0.21816 0.0485 0.21816 0.0485z"/>
    <path d="m42.76 240s-0.29088-0.16968-0.38784 0.21816c-0.09696 0.38785-0.21816 0.33937-0.09696 0.60601s0.07272 0.21816 0.2424 0.38784c0.16968 0.16969 0.65449 0.33937 0.77569 0.33937 0.1212 0 0.2424-0.0727 0.2424-0.0727s0.09696 0.0727 0.02424-0.2424c-0.07272-0.31512-0.04848-0.29088-0.14544-0.58176-0.09696-0.29088-0.04848-0.24241-0.1212-0.38785-0.07272-0.14544-0.07272-0.2424-0.19392-0.2424s-0.33936-0.0242-0.33936-0.0242z"/>
    <path d="m57.66 260.33 0.06856-1.0284-0.34281-0.23996s-0.34281-0.20569-0.61706-0.0343c-0.27425 0.1714-0.61706 0.0343-0.41137 0.54849 0.20569 0.51422 0.06856 0.5485 0.23997 0.61706 0.1714 0.0686 0.20568 0.20568 0.37709 0.20568s0.20569 0 0.34281-0.0343 0.34281-0.0343 0.34281-0.0343z"/>
    <path d="m57.626 261.8s0.27425-0.10284 1.0284 0c0.75418 0.10284 0.78846 0.0343 0.92558 0.10284 0.13712 0.0686 0.23997-0.0343 0.27425 0.17141 0.03428 0.20568 0.06856 0.44565 0.06856 0.61705 0 0.17141 0.13712 0.27425-0.03428 0.41137-0.1714 0.13713 0.37709 0.0686-0.27425 0.20569-0.65134 0.13712-0.23997 0.34281-0.8913 0.1714-0.65134-0.1714-0.47993 0-0.75418-0.23996-0.27425-0.23997-0.1714-0.17141-0.44565-0.44566-0.27425-0.27424-0.51421-0.44565-0.61706-0.65133-0.10284-0.20569-0.10284-0.27425-0.10284-0.27425z"/>
    <path d="m98.215 260.23 0.44565 0.85702 0.1714 0.23997s0.13712 0.20568 0.27425 0.51421c0.13712 0.30853 0.23997 0.30853 0.27425 0.58277 0.03428 0.27425 0.06856 0.20569 0.06856 0.51422v0.47993s0.37709-0.13712-0.03428 0.23997c-0.41137 0.37709-0.10284 0.27424-0.47993 0.51421-0.37709 0.23997-0.37709 0.27425-0.58278 0.41137-0.20568 0.13713-0.20568 0.13713-0.44565 0.30853-0.23997 0.1714-0.10284 0.0343-0.37709 0.27424-0.27425 0.23998-0.30853 0.27427-0.51421 0.41137-0.20568 0.13714-0.30853 0.27424-0.30853 0.27424s0.03428 0.0686-0.20568 0.13714c-0.23997 0.0686-0.03428 0.17139-0.34281 0.10284-0.30853-0.0686-0.41137 0-0.51421-0.34282-0.10284-0.34279-0.13712-0.20569-0.1714-0.61703-0.03428-0.41138-0.03428-0.17143-0.03428-0.61707 0-0.44565-0.20568-0.44565 0.03428-0.68562 0.23997-0.23997 0.23997-0.27424 0.44565-0.41137 0.20568-0.13712-0.03428-0.10284 0.34281-0.23996 0.37709-0.13713 0.23997-0.10285 0.68562-0.27425 0.44565-0.17141 0.51421-0.20569 0.51421-0.20569s0.06856-0.10284 0.1714-0.41137c0.10284-0.30853 0.20568 0.10284 0.23997-0.68562 0.03428-0.78846 0.03428-1.097 0.03428-1.097v-0.44565z"/>
    <path d="m97.022 260.69-0.16968 0.4242s-0.03636 0.097-0.10908 0.20605c-0.07272 0.10908-0.10908 0.33936-0.37572 0.33936s-0.23028 0-0.32724-0.0242c-0.09696-0.0242-0.16968-0.0848-0.26664-0.15756-0.09696-0.0727-0.10908-0.0242-0.16968-0.14544-0.0606-0.1212-0.0606-0.14544-0.09696-0.25452s-0.0606-0.097-0.0606-0.16968c0-0.0727 0.02424-0.23028 0.03636-0.27877 0.01212-0.0485 0.46057-0.097 0.52117-0.0848 0.0606 0.0121 0.2424 0.0242 0.37572 0.0364 0.13332 0.0121 0.2424 0.0121 0.32724 0.0121 0.08484 0 0.31512 0.097 0.31512 0.097z"/>
    <path d="m107.33 257.16-0.27424 0.42851-0.17141 0.29139s-0.0686 0.0171 0 0.15426c0.0686 0.13713 0.22283 0.27425 0.30853 0.30853 0.0857 0.0343 0.15426 0.0514 0.30853 0.10284 0.15426 0.0514 0.32567 0.0686 0.32567 0.0686s0.23996 0.0686 0.32566 0.0686 0.0857 0.0343 0.30853 0 0.29139 0.0343 0.35995-0.13713c0.0686-0.1714 0.10284-0.0686 0.10284-0.3428 0-0.27425 0.0343-0.22283 0-0.51422s-0.0171-0.30853-0.0686-0.49707c-0.0514-0.18855 0.0686 0.0171-0.10284-0.35995-0.1714-0.37709 0.0172-0.11998-0.23997-0.47993-0.2571-0.35995-0.23996-0.39423-0.42851-0.51422-0.18854-0.11998-0.0171-0.0343-0.32567-0.18854-0.30853-0.15427-0.0514-0.0857-0.42851-0.18855-0.37709-0.10284-0.75418-0.15426-0.75418-0.15426s-0.32567-0.0857-0.53135-0.0514c-0.20569 0.0343-0.46279 0.10284-0.46279 0.10284l-0.27425 0.18855-0.13712 0.0514s0 0.0343-0.17141 0c-0.1714-0.0343-0.10284 0.0514-0.30852-0.0857-0.20569-0.13712-0.30853-0.1714-0.39423-0.23996-0.0857-0.0686-0.11999-0.0514-0.18855-0.11999-0.0686-0.0686-0.0857-0.0857-0.20569-0.15426-0.11998-0.0686-0.42851-0.18854-0.42851-0.18854s0-0.0172-0.13712-0.0172-0.0857-0.0343-0.35995 0.0514-0.32567 0.0686-0.42851 0.13713c-0.10284 0.0686-0.23997 0.0171-0.23997 0.18854 0 0.1714-0.0686 0.13712 0 0.34281 0.0686 0.20568 0.0343 0.25711 0.15427 0.41137 0.11998 0.15426 0.18854 0.27425 0.2571 0.32567 0.0686 0.0514 0.0686 0.13712 0.20569 0.22283 0.13712 0.0857 0.27425 0.20568 0.39423 0.32566 0.11998 0.11999 0.0686 0.0857 0.23997 0.17141 0.1714 0.0857 0.18854 0.15426 0.46279 0.20568 0.27425 0.0514 0.34281 0.11999 0.78846 0.0857 0.44565-0.0343 0.34281 0.0172 0.61705-0.0514 0.27425-0.0686 0.25711-0.0343 0.58278-0.13712 0.32567-0.10284 0.20569-0.0857 0.46279-0.11998 0.25711-0.0343 0.46279-0.0343 0.46279-0.0343s0.0857 0.0343 0.17141 0.0514c0.0857 0.0171 0.13712 0.0857 0.13712 0.0857z"/>
    <path d="m103.67 252.96s0.32567 0.0686 0.47993 0.15427c0.15427 0.0857 0.20569 0.0857 0.34281 0.1714s0.47993 0.39423 0.47993 0.39423v0.13712s0.17141 0.11999-0.11998 0.11999-0.23997 0.0857-0.46279-0.0172c-0.22283-0.10284-0.20569 0-0.32567-0.13712-0.11998-0.13713-0.0514-0.0343-0.15427-0.20569-0.10284-0.1714-0.11998-0.20568-0.15426-0.27425-0.0343-0.0686-0.0857-0.3428-0.0857-0.3428z"/>
    <path d="m128.59 261.19c-0.63025-0.29089-0.33937-0.26665-1.212-0.46057-0.87264-0.19392-0.79992-0.21816-1.1635-0.26664-0.3636-0.0485-0.53328-0.0485-0.65448-0.0485s-0.19392-0.0242-0.48481 0.19392c-0.29088 0.21816-0.38784 0.3636-0.50904 0.41208-0.12121 0.0485-0.31513 0.097-0.43633 0.29089-0.1212 0.19392-0.16968 0.19392-0.19392 0.3636-0.0242 0.16968-0.0242 0.16968-0.0242 0.41208 0 0.24241-0.29088 0.46057 0.097 0.60601 0.38785 0.14544 0.19393 0.0727 0.72721 0.26664 0.53329 0.19392 0.43632 0.19392 0.79993 0.29088 0.3636 0.097 0.3636 0.097 0.82417 0.24241 0.46056 0.14544 0.21816 0.1212 0.7272 0.26664 0.50905 0.14544 0.55753 0.21816 0.94537 0.26664 0.38785 0.0485 0.31513 0.0485 0.65449 0.0727s0.29088 0.0727 0.50905 0.0242c0.21816-0.0485 0.38784-0.0242 0.50904-0.26664 0.1212-0.2424 0.55753 0.63024 0.14544-0.48481-0.41208-1.115-0.43632-1.115-0.53328-1.2605-0.097-0.14544-0.1212-0.19392-0.21817-0.33936-0.097-0.14544-0.19392-0.26665-0.31512-0.38785l-0.19392-0.19392z"/>
    <path d="m131.36 261.7s-0.29088-0.0485-0.33936 0.0485c-0.0485 0.097-0.26664 0.21816-0.1212 0.38784s0.33936 0.29089 0.50905 0.41209c0.16968 0.1212 0.26664 0.16968 0.4848 0.38784s0.2424 0.26664 0.4848 0.46057c0.24241 0.19392 0.31513 0.3636 0.55753 0.29088 0.2424-0.0727 0.41208-0.097 0.67873-0.29088 0.26664-0.19393 0.33936-0.0242 0.46056-0.43633 0.1212-0.41208 0.31513-0.43632 0.14544-0.67872-0.16968-0.24241 0-0.33937-0.50904-0.38785-0.50905-0.0485-0.55753 0-0.72721-0.0485s0.0485-0.0485-0.41208-0.0727c-0.46057-0.0242-0.36361 0.0242-0.58177-0.0242-0.21816-0.0485-0.63025-0.0485-0.63025-0.0485z"/>
   </g>
  </g>
 </g>
</svg>
