<?xml version="1.0" encoding="UTF-8" standalone="no"?>
<svg
   xmlns:dc="http://purl.org/dc/elements/1.1/"
   xmlns:cc="http://creativecommons.org/ns#"
   xmlns:rdf="http://www.w3.org/1999/02/22-rdf-syntax-ns#"
   xmlns:svg="http://www.w3.org/2000/svg"
   xmlns="http://www.w3.org/2000/svg"
   width="2241.7173"
   height="165.44684"
   viewBox="0 0 593.12102 43.774478"
   version="1.1"
   id="svg8">
  <defs
     id="defs2" />
  <metadata
     id="metadata5">
    <rdf:RDF>
      <cc:Work
         rdf:about="">
        <dc:format>image/svg+xml</dc:format>
        <dc:type
           rdf:resource="http://purl.org/dc/dcmitype/StillImage" />
        <dc:title></dc:title>
      </cc:Work>
    </rdf:RDF>
  </metadata>
  <g
     id="layer1"
     transform="translate(33.805284,-241.89402)">
    <g
       id="g891">
      <path
         style="fill:#000000;fill-opacity:1;stroke:#000000;stroke-width:0.377976px;stroke-linecap:butt;stroke-linejoin:miter;stroke-opacity:1"
         d="m -33.616296,247.60024 c 0,0 75.595243,28.35799 90.714286,24.30683 6.897569,-1.84821 14.84758,-9.85819 15.14027,-9.74416 0.5136,0.2001 2.15762,0.4867 1.43213,-0.0452 -0.26844,-0.1968 -0.47079,-0.30341 -0.86448,-0.62826 -0.12558,-0.10362 2.16086,-2.85445 2.92102,-4.07525 1.40379,-2.25447 5.28353,-3.49588 5.28353,-3.49588 0,0 -7.99161,16.16916 7.12743,8.60964 0.78693,-0.39347 3.90324,0.39988 3.84384,0.81818 -0.65252,4.59514 1.0063,0.79695 1.45785,1.12078 2.77099,1.98719 11.46265,7.46472 9.11358,3.7055 -2.65291,-4.24546 -1.23909,-11.81783 -0.56014,-9.12206 3.14834,6.08335 13.52171,10.22712 19.6803,7.79058 0.19861,-0.13258 1.27965,0.9002 1.81741,1.20161 0.47028,0.26359 0.52119,-0.0399 -0.74556,-2.06871 -0.0872,-0.13962 1.02168,-1.13084 1.46286,-1.8618 1.16656,-1.93276 14.21701,-5.1666 14.04132,-4.66613 -0.79091,2.25297 1.49478,0.0802 2.2688,-0.28039 0.43697,-0.20354 9.01594,-0.2334 5.31523,1.63198 -6.60675,4.15739 0.4181,2.5839 9.08487,3.13185 0.91755,0.058 1.85349,0.1398 2.79361,0.25469 1.33044,0.16258 2.66924,0.39144 3.97608,0.71299 8.04696,1.97996 14.36887,-3.25863 12.93706,-5.60536 -9.80379,-13.58134 13.505,-1.38884 15.27433,3.44026 1.38021,3.76709 6.62662,-6.74044 3.2701,-15.13173 -4.47636,-11.19089 5.26003,-3.25421 12.97578,5.25166 0.91626,1.01008 3.18817,12.97275 2.6361,3.02325 -0.0489,-0.8816 5.02207,6.51072 5.49024,8.13713 4.22539,14.67881 16.69549,21.38559 16.69549,21.38559 h -264.583336 z"
         id="path861" />
      <path
         style="fill:#000000;fill-opacity:1;stroke:#000000;stroke-width:0.377976px;stroke-linecap:butt;stroke-linejoin:miter;stroke-opacity:1"
         d="m 559.12676,247.68192 c 0,0 -75.59525,28.35799 -90.71429,24.30683 -6.89757,-1.84821 -14.84758,-9.85819 -15.14027,-9.74416 -0.5136,0.2001 -2.15762,0.4867 -1.43213,-0.0452 0.26844,-0.1968 0.47079,-0.30341 0.86448,-0.62826 0.12558,-0.10362 -2.16086,-2.85445 -2.92102,-4.07525 -1.40379,-2.25447 -5.28353,-3.49588 -5.28353,-3.49588 0,0 7.99161,16.16916 -7.12743,8.60964 -0.78693,-0.39347 -3.90324,0.39988 -3.84384,0.81818 0.65252,4.59514 -1.0063,0.79695 -1.45785,1.12078 -2.77099,1.98719 -11.46265,7.46472 -9.11358,3.7055 2.65291,-4.24546 1.23909,-11.81783 0.56014,-9.12206 -3.14834,6.08335 -13.52171,10.22712 -19.6803,7.79058 -0.19861,-0.13258 -1.27965,0.9002 -1.81741,1.20161 -0.47028,0.26359 -0.52119,-0.0399 0.74556,-2.06871 0.0872,-0.13962 -1.02168,-1.13084 -1.46286,-1.8618 -1.16656,-1.93276 -14.21701,-5.1666 -14.04132,-4.66613 0.79091,2.25297 -1.49478,0.0802 -2.2688,-0.28039 -0.43697,-0.20354 -9.01594,-0.2334 -5.31523,1.63198 6.60675,4.15739 -0.4181,2.5839 -9.08487,3.13185 -0.91755,0.058 -1.85349,0.1398 -2.79361,0.25469 -1.33044,0.16258 -2.66924,0.39144 -3.97608,0.71299 -8.04696,1.97996 -14.36887,-3.25863 -12.93706,-5.60536 9.80379,-13.58134 -13.505,-1.38884 -15.27433,3.44026 -1.38021,3.76709 -6.62662,-6.74044 -3.2701,-15.13173 4.47636,-11.19089 -5.26003,-3.25421 -12.97578,5.25166 -0.91626,1.01008 -3.18817,12.97275 -2.6361,3.02325 0.0489,-0.8816 -5.02207,6.51072 -5.49024,8.13713 -4.22539,14.67881 -16.69549,21.38559 -16.69549,21.38559 h 264.58334 z"
         id="path861-0" />
    </g>
  </g>
</svg>
